<svg width="30" height="27" viewBox="0 0 30 27" fill="none" xmlns="http://www.w3.org/2000/svg">
<path fill-rule="evenodd" clip-rule="evenodd" d="M0.485319 25.5339C-0.0140535 24.8237 -0.136455 23.9149 0.157236 23.0979L7.82616 1.76457C8.20672 0.705948 9.21067 0 10.3356 0H18.9978C20.1227 0 21.1266 0.705948 21.5072 1.76457L29.1761 23.0979C29.4698 23.9149 29.3474 24.8237 28.8481 25.5339C28.3487 26.244 27.5349 26.6667 26.6667 26.6667H19.4048C18.215 26.6667 17.1692 25.8785 16.8414 24.7347L16.179 22.4237H13.1544L12.492 24.7347C12.1642 25.8785 11.1184 26.6667 9.92856 26.6667H2.66668C1.79851 26.6667 0.984691 26.244 0.485319 25.5339ZM11.1446 19.757H18.1887L19.4048 24H26.6667L18.9978 2.66667H10.3356L2.66668 24H9.92856L11.1446 19.757ZM14.7481 7.75237H14.5853L12.4116 15.3366H16.9218L14.7481 7.75237Z" fill="#747474"/>
</svg>



